Coordinates
version=1
nRows=13
nColumns=40
inDegrees=yes

Units are S.I. units (second, meters, Newtons, ...)
Angles are in degrees.

endheader
time	pelvis_tilt	pelvis_list	pelvis_rotation	pelvis_tx	pelvis_ty	pelvis_tz	hip_flexion_r	hip_adduction_r	hip_rotation_r	knee_angle_r	knee_angle_r_beta	ankle_angle_r	subtalar_angle_r	mtp_angle_r	hip_flexion_l	hip_adduction_l	hip_rotation_l	knee_angle_l	knee_angle_l_beta	ankle_angle_l	subtalar_angle_l	mtp_angle_l	lumbar_extension	lumbar_bending	lumbar_rotation	arm_flex_r	arm_add_r	arm_rot_r	elbow_flex_r	pro_sup_r	wrist_flex_r	wrist_dev_r	arm_flex_l	arm_add_l	arm_rot_l	elbow_flex_l	pro_sup_l	wrist_flex_l	wrist_dev_l
     39.92142857	     -5.63732743	     -5.36583655	     -2.82614200	      1.04629232	      0.93205821	      0.41644992	     33.58471504	     -5.80983796	     -8.19093277	     55.51361765	     55.51361765	      1.23015382	    -12.91028515	      1.10781552	     12.12175443	     -6.31589585	    -10.02146048	     20.98850813	     20.98850813	     16.07370514	     -8.08662267	      0.62314311	    -12.01719756	      4.65919455	      2.62058405	      4.92577490	    -14.18492108	     -0.57546226	     47.54472766	     46.12656912	      0.00000000	      0.00000000	     15.12133144	    -14.63102308	     -2.79102065	     56.26520412	     46.58029165	      0.00000000	      0.00000000
     39.93285714	     -5.74665787	     -5.41441361	     -3.05576257	      1.04507547	      0.93214568	      0.41680863	     34.05173971	     -5.44367624	     -8.28203442	     52.61698840	     52.61698840	      1.32780096	    -12.05066581	      1.06132029	     11.28484920	     -6.34166985	    -10.40506699	     20.19241881	     20.19241881	     16.22382703	     -7.69544550	      0.36769383	    -12.11047136	      4.72532802	      2.77572494	      3.56965959	    -14.49498680	     -0.54147090	     44.93263037	     46.20303255	      0.00000000	      0.00000000	     16.48395503	    -15.08306234	     -2.69515794	     57.94768086	     46.61579102	      0.00000000	      0.00000000
     39.94428571	     -5.93965073	     -5.40392581	     -3.24330784	      1.04391044	      0.93198069	      0.41719881	     34.43695678	     -5.10268330	     -8.35134676	     49.37745841	     49.37745841	      1.07827583	    -11.37058416	      0.09464039	     10.55001777	     -6.30792409	    -10.78537643	     19.37827958	     19.37827958	     16.02924583	     -7.35798463	     -0.69759628	    -12.06098628	      4.70873291	      2.10614700	      3.70681338	    -14.16044598	     -0.95336397	     39.59702102	     46.38033441	      0.00000000	      0.00000000	     16.85172962	    -16.37332615	     -2.03508675	     60.77584152	     46.65506016	      0.00000000	      0.00000000
     39.95571429	     -6.07582401	     -5.38930966	     -3.42246018	      1.04289939	      0.93181183	      0.41760689	     34.60522059	     -4.77262299	     -8.49149212	     45.93697984	     45.93697984	      1.25916092	    -10.38291771	      0.12757787	      9.70775634	     -6.23101948	    -11.08394131	     18.51888005	     18.51888005	     16.16764190	     -6.99498244	     -0.90782010	    -12.13061111	      4.72128300	      2.33033141	      2.01250629	    -14.56013889	     -0.95507334	     37.96414786	     46.41908146	      0.00000000	      0.00000000	     18.15666174	    -16.59673110	     -2.30615212	     62.49072341	     46.72290575	      0.00000000	      0.00000000
     39.96714286	     -6.22436189	     -5.34046265	     -3.58521765	      1.04205524	      0.93147428	      0.41806257	     34.61411036	     -4.46118407	     -8.67212781	     42.26611263	     42.26611263	      1.42124307	     -9.33166292	      0.02749254	      8.84532587	     -6.12073515	    -11.44375283	     17.60583174	     17.60583174	     16.21939796	     -6.52819465	     -1.37691368	    -12.16183747	      4.70513648	      2.45143232	      0.50974270	    -14.83716951	     -1.06353722	     36.04385295	     46.47463062	      0.00000000	      0.00000000	     19.17958445	    -16.99418698	     -2.37993263	     64.66362733	     46.78453450	      0.00000000	      0.00000000
     39.97857143	     -6.36917254	     -5.33994312	     -3.69951878	      1.04142663	      0.93100435	      0.41855975	     34.40527854	     -4.08125174	     -8.97726082	     38.36768399	     38.36768399	      1.67006304	     -8.22411764	      0.20237613	      7.99239068	     -6.05418978	    -11.72602259	     16.73288442	     16.73288442	     16.31755657	     -6.11933428	     -1.74905311	    -12.14656105	      4.79480832	      2.45089593	     -1.02408873	    -15.14918684	     -1.16862657	     34.64554103	     46.51555908	      0.00000000	      0.00000000	     20.08027515	    -17.39151748	     -2.51562869	     66.51734651	     46.83905275	      0.00000000	      0.00000000
     39.99000000	     -6.51899330	     -5.22984396	     -3.82579370	      1.04098413	      0.93023988	      0.41913242	     34.10250355	     -3.80034756	     -9.33189887	     34.44029659	     34.44029659	      1.76640910	     -6.99684004	      0.04181255	      7.04496312	     -5.85997814	    -12.11300585	     15.65809623	     15.65809623	     16.04082055	     -5.66083981	     -3.13485411	    -12.13739007	      4.70399114	      2.12758787	     -2.07042593	    -15.13524099	     -1.72863688	     32.51150336	     46.59662703	      0.00000000	      0.00000000	     20.16808618	    -18.27596125	     -2.60880397	     70.12873741	     46.94517371	      0.00000000	      0.00000000
     40.00142857	     -6.61913930	     -5.22739073	     -3.89755483	      1.04088199	      0.92947846	      0.41977350	     33.51748954	     -3.38410677	     -9.87078527	     30.39156697	     30.39156697	      1.96238426	     -5.75346260	      0.72787032	      6.06888582	     -5.76690722	    -12.34328844	     14.70382372	     14.70382372	     16.23905364	     -5.25832300	     -3.38114248	    -12.02063815	      4.79039471	      2.19632029	     -3.78644029	    -15.43945420	     -1.80391477	     31.59865442	     46.61776628	      0.00000000	      0.00000000	     21.01766657	    -18.40715790	     -2.91327639	     71.70886188	     47.00668323	      0.00000000	      0.00000000
     40.01285714	     -6.68500142	     -4.96460787	     -3.97250455	      1.04092138	      0.92833352	      0.42046177	     33.03516001	     -3.24808116	    -10.35958159	     26.88922625	     26.88922625	      2.65211384	     -4.05978837	      2.15496655	      5.00399135	     -5.39260839	    -12.72480899	     13.60410963	     13.60410963	     15.95179195	     -4.69544480	     -4.69130941	    -12.11963795	      4.54851359	      1.99832491	     -5.34802429	    -15.48957764	     -2.37918817	     30.87553561	     46.64070754	      0.00000000	      0.00000000	     21.08154701	    -19.04579749	     -3.41827157	     75.27162900	     47.14657290	      0.00000000	      0.00000000
     40.02428571	     -6.70430253	     -4.77471860	     -4.01846895	      1.04129341	      0.92710918	      0.42126572	     32.42238956	     -3.02341187	    -11.00624390	     23.62928947	     23.62928947	      3.26457760	     -2.50153190	      4.06806929	      3.89313678	     -5.08435984	    -12.97528838	     12.56921986	     12.56921986	     15.93735875	     -4.23759149	     -5.46168874	    -12.11812782	      4.40346561	      1.98498031	     -7.07450324	    -15.60049210	     -2.71376006	     30.41263046	     46.63875359	      0.00000000	      0.00000000	     21.47131659	    -19.29147567	     -3.92412385	     77.76832847	     47.26789757	      0.00000000	      0.00000000
     40.03571429	     -6.70592816	     -4.59648852	     -4.02370749	      1.04185423	      0.92567849	      0.42218639	     31.83818967	     -2.79651764	    -11.71262780	     20.89363213	     20.89363213	      4.05084900	     -1.04333320	      6.71211210	      2.83286503	     -4.81348166	    -13.16652400	     11.68647997	     11.68647997	     15.96647244	     -3.81851751	     -6.24489725	    -12.11402263	      4.27166388	      1.85785552	     -8.81955252	    -15.67994373	     -3.11079217	     30.43239860	     46.60776126	      0.00000000	      0.00000000	     21.63351930	    -19.62853598	     -4.44444611	     80.42302177	     47.40901193	      0.00000000	      0.00000000
     40.04714286	     -6.64427367	     -4.44363461	     -3.98729656	      1.04269391	      0.92416602	      0.42329622	     31.14507629	     -2.52174756	    -12.42731739	     18.50327066	     18.50327066	      4.18909030	      0.00218434	      7.64442193	      1.75615551	     -4.59530660	    -13.31630695	     10.95455493	     10.95455493	     16.28051383	     -3.32538976	     -6.42212093	    -12.10375584	      4.15586417	      2.07056104	    -10.57992539	    -15.75320268	     -3.15576011	     29.96676811	     46.60591481	      0.00000000	      0.00000000	     22.20209044	    -19.59592684	     -4.68277253	     82.12078823	     47.47137327	      0.00000000	      0.00000000
     40.05857143	     -6.65869663	     -4.19558616	     -3.97668362	      1.04361686	      0.92238330	      0.42450009	     30.75145695	     -2.41854776	    -13.19606096	     16.96685797	     16.96685797	      4.53516505	      1.19601567	      9.15343772	      0.82703608	     -4.31097686	    -13.54488701	     10.35988721	     10.35988721	     16.60593310	     -2.70509369	     -6.75657959	    -12.01315901	      3.94029242	      1.95545146	    -12.36580783	    -15.69487706	     -3.50219335	     30.48762443	     46.56606466	      0.00000000	      0.00000000	     22.13918485	    -19.92881812	     -5.11988521	     84.87384994	     47.58535181	      0.00000000	      0.00000000
